<svg width="512" height="512" version="1.1" xmlns="http://www.w3.org/2000/svg" desc="Created with imagetracer.js version 1.2.6" ><path fill="rgb(0,0,0)" stroke="rgb(0,0,0)" stroke-width="1" opacity="0" d="M 0 0 L 511.5 0 L 512 0.5 L 512 169.5 L 511 169.5 L 510 152.5 L 507 138.5 L 497 110.5 Q 482.7 80.3 458.5 60 Q 438.8 43.2 411.5 34 L 388.5 29 L 357.5 28 L 328.5 34 L 307.5 43 Q 284.7 55.7 268 74.5 L 256.5 89 L 254 87.5 Q 244.3 73.2 231.5 62 Q 212.6 44.9 186.5 35 L 162.5 29 L 133.5 28 L 132.5 29 L 117.5 30 L 100.5 34 L 73.5 46 Q 52.3 58.3 37 76.5 Q 19.9 95.9 10 122.5 L 3 147.5 L 0.5 170 L 0 0 Z " /><path fill="rgb(0,0,0)" stroke="rgb(0,0,0)" stroke-width="1" opacity="0" d="M 133.5 58 L 159.5 59 L 183.5 66 Q 209.1 78.4 226 99.5 L 240 120.5 L 244.5 125 L 249.5 128 L 257.5 129 Q 267.5 127.5 272 120.5 Q 284.3 97.8 303.5 82 Q 318.3 68.8 339.5 62 L 359.5 58 L 378.5 58 L 403.5 63 L 423.5 72 Q 439.4 81.1 451 94.5 Q 468.6 113.9 477 142.5 L 482 170.5 L 482 192.5 L 481 193.5 L 480 207.5 L 473 231.5 L 457 262.5 Q 427.3 305.3 388.5 339 L 255.5 453 L 133.5 348 L 83 298.5 L 55 262.5 L 41 236.5 L 32 207.5 L 31 193.5 L 30 192.5 L 30 170.5 L 35 142.5 L 42 123.5 Q 53 100 71.5 84 Q 84.1 73.1 100.5 66 L 119.5 60 L 132.5 59 L 133.5 58 Z " /><path fill="rgb(0,0,0)" stroke="rgb(0,0,0)" stroke-width="1" opacity="0" d="M 0.5 193 L 2 209.5 L 6 227.5 Q 13.7 252.3 26 272.5 L 52 308.5 L 93.5 352 L 234.5 475 L 245.5 482 Q 252.2 484.3 262.5 483 Q 271.7 480.7 277.5 475 L 369.5 396 Q 407.6 364.1 442 328.5 Q 470.4 299.9 491 263.5 Q 500 247 506 227.5 L 510 209.5 L 511.5 193 L 512 512 L 0 512 L 0.5 193 Z " /><path fill="rgb(0,0,0)" stroke="rgb(0,0,0)" stroke-width="1" opacity="0.9882352941176471" d="M 133.5 28 L 162.5 29 L 183.5 34 L 196.5 39 Q 224.7 52.3 244 74.5 L 255.5 89 L 258 87.5 Q 267.7 73.2 280.5 62 Q 299.4 44.9 325.5 35 L 349.5 29 L 378.5 28 L 379.5 29 L 394.5 30 L 411.5 34 L 438.5 46 Q 459.7 58.3 475 76.5 Q 494.9 99.1 505 131.5 L 511 160.5 L 512 192.5 L 511 193.5 L 511 202.5 L 510 203.5 L 509 215.5 L 506 227.5 Q 498.3 252.3 486 272.5 L 460 308.5 L 418.5 352 L 277.5 475 L 266.5 482 Q 259.8 484.3 249.5 483 Q 240.3 480.7 234.5 475 L 142.5 396 Q 103.8 363.7 69 327.5 Q 36.5 295 15 251.5 Q 7.5 235 3 215.5 L 2 203.5 L 1 202.5 L 1 193.5 L 0 192.5 L 0 170.5 L 1 169.5 L 2 152.5 L 5 138.5 L 15 110.5 Q 29.3 80.3 53.5 60 Q 70.2 45.7 92.5 37 L 112.5 31 L 123.5 29 L 132.5 29 L 133.5 28 Z M 134 58 L 133 59 L 120 60 L 101 66 Q 84 73 72 84 Q 53 100 42 124 L 35 143 L 30 171 L 30 193 L 31 194 L 32 208 L 41 237 L 55 263 L 83 299 L 134 348 L 256 453 L 389 339 Q 427 305 457 263 L 473 232 L 480 208 L 481 194 L 482 193 L 482 171 L 477 143 Q 469 114 451 95 Q 439 81 424 72 L 404 63 L 379 58 L 360 58 L 340 62 Q 318 69 304 82 Q 284 98 272 121 Q 268 128 258 129 L 250 128 L 245 125 L 240 121 L 226 100 Q 209 78 184 66 L 160 59 L 134 58 Z " /></svg>